<svg width="179" height="44" viewBox="0 0 179 44" fill="none" xmlns="http://www.w3.org/2000/svg">
<path d="M75.4008 43.1822V14.1507H75.2121L63.5606 43.1822H59.1128L47.4334 14.1507H47.2468V43.1822H41.7824V3.73612H48.7201L61.2295 35.1713H61.4439L73.9254 3.73827H80.891V43.1843L75.4008 43.1822ZM111.106 43.1822H105.56V38.3167H105.427C103.872 41.761 101.007 43.7003 96.6943 43.7003C90.5609 43.7003 86.8078 39.6282 86.8078 33.0406V14.4238H92.5939V31.8925C92.5939 36.2656 94.6313 38.6156 98.6202 38.6156C102.802 38.6156 105.32 35.6636 105.32 31.1809V14.4238H111.104L111.106 43.1822ZM126.963 13.9035C133.525 13.9035 137.784 17.623 137.973 22.9249H132.535C132.213 20.1385 130.203 18.3884 126.963 18.3884C123.828 18.3884 121.739 19.945 121.739 22.2433C121.739 24.0472 123.025 25.2748 126.077 25.9865L130.658 27.0529C136.418 28.4203 138.614 30.7165 138.614 34.8703C138.614 40.1206 133.819 43.7283 127.177 43.7283C120.132 43.7283 115.897 40.2023 115.363 34.7348H121.095C121.632 37.7405 123.641 39.2176 127.177 39.2176C130.658 39.2176 132.803 37.7405 132.803 35.3906C132.803 33.5308 131.758 32.4386 128.676 31.727L124.096 30.6348C118.738 29.377 116.086 26.7519 116.086 22.5723C116.086 17.4316 120.48 13.9035 126.963 13.9035ZM142.629 6.82567C142.629 4.93797 144.13 3.43512 145.977 3.43512C147.825 3.43512 149.301 4.94012 149.301 6.82567C149.301 8.68327 147.825 10.2141 145.977 10.2141C145.086 10.2067 144.234 9.84624 143.607 9.21141C142.98 8.57657 142.627 7.71892 142.629 6.82567ZM143.084 14.4238H148.87V43.1822H143.084V14.4238ZM173.299 24.3202C172.709 21.2586 170.459 18.8248 166.683 18.8248C162.209 18.8248 159.262 22.6239 159.262 28.8008C159.262 35.1175 162.235 38.7811 166.736 38.7811C170.296 38.7811 172.63 36.7859 173.299 33.4491H178.872C178.257 39.5723 173.462 43.7283 166.685 43.7283C158.621 43.7283 153.371 38.0953 153.371 28.803C153.371 19.6719 158.621 13.9035 166.631 13.9035C173.891 13.9035 178.311 18.6614 178.819 24.3202H173.299ZM24.0854 7.58462C22.5885 9.37772 20.2144 10.801 17.8382 10.5903C17.5272 8.16512 18.7175 5.58082 20.06 4.00057C21.5548 2.15157 24.1368 0.835771 26.2535 0.728271C26.513 3.26097 25.533 5.73777 24.0875 7.58677L24.0854 7.58462ZM26.2278 11.0655C27.566 11.1708 31.4284 11.5901 33.9011 15.3225C33.6952 15.4816 29.3181 18.0573 29.3696 23.471C29.4211 29.9425 34.9305 32.0968 34.982 32.1505C34.9305 32.3096 34.1091 35.2014 32.0997 38.1963C30.3475 40.8279 28.5461 43.4036 25.6616 43.4574C22.8801 43.509 21.9515 41.7739 18.7604 41.7739C15.5671 41.7739 14.5356 43.4036 11.9106 43.509C9.12908 43.6122 7.02096 40.7204 5.26884 38.091C1.66166 32.7805 -1.06625 23.1055 2.64173 16.5845C4.44317 13.3251 7.73939 11.274 11.293 11.2203C14.023 11.1708 16.5472 13.0628 18.1942 13.0628C19.8434 13.0628 22.7772 10.8569 26.2278 11.0655Z" fill="white"/>
</svg>
