<svg width="54" height="56" viewBox="0 0 54 56" fill="none" xmlns="http://www.w3.org/2000/svg">
<path d="M26.6667 20.3333C26.6667 20.8856 27.1144 21.3333 27.6667 21.3333H31C31.5523 21.3333 32 20.8856 32 20.3333V14.3333C32 13.781 32.4477 13.3333 33 13.3333H39C39.5523 13.3333 40 12.8856 40 12.3333V9C40 8.44772 39.5523 8 39 8H33C32.4477 8 32 7.55228 32 7V1C32 0.447715 31.5523 0 31 0H27.6667C27.1144 0 26.6667 0.447715 26.6667 1V7C26.6667 7.55228 26.219 8 25.6667 8H19.6667C19.1144 8 18.6667 8.44772 18.6667 9V12.3333C18.6667 12.8856 19.1144 13.3333 19.6667 13.3333H25.6667C26.219 13.3333 26.6667 13.781 26.6667 14.3333V20.3333ZM16 45.3333C13.0667 45.3333 10.6933 47.7333 10.6933 50.6667C10.6933 53.6 13.0667 56 16 56C18.9333 56 21.3333 53.6 21.3333 50.6667C21.3333 47.7333 18.9333 45.3333 16 45.3333ZM42.6667 45.3333C39.7333 45.3333 37.36 47.7333 37.36 50.6667C37.36 53.6 39.7333 56 42.6667 56C45.6 56 48 53.6 48 50.6667C48 47.7333 45.6 45.3333 42.6667 45.3333ZM16.465 36.7891C16.4495 36.7088 16.4634 36.6266 16.4832 36.5472L16.5017 36.4733C16.5227 36.3892 16.5545 36.3083 16.5964 36.2324L18.6481 32.5166C18.8241 32.1979 19.1594 32 19.5235 32H38.8C40.8 32 42.56 30.9067 43.4667 29.2533L53.2781 11.4353C53.5443 10.9517 53.3684 10.344 52.8852 10.0773L49.1271 8.00391C49.1224 8.00134 49.1172 8 49.1119 8V8C49.1005 8 49.0899 8.00624 49.0844 8.01628L46.16 13.3333L39.0852 26.1499C38.9093 26.4687 38.5739 26.6667 38.2098 26.6667H20.7084C20.3242 26.6667 19.974 26.4466 19.8074 26.1005L19.7333 25.9467L13.76 13.3333L11.2267 8L8.99008 3.24131C8.82524 2.89058 8.47259 2.66667 8.08506 2.66667H1C0.447715 2.66667 0 3.11438 0 3.66667V7C0 7.55228 0.447715 8 1 8H4.70086C5.08712 8 5.43885 8.22246 5.60438 8.57145L14.7139 27.7773C14.8517 28.0678 14.8414 28.4069 14.6862 28.6885L11.3333 34.7733C10.9067 35.52 10.6667 36.4 10.6667 37.3333C10.6667 40.2667 13.0667 42.6667 16 42.6667H47C47.5523 42.6667 48 42.219 48 41.6667V38.3333C48 37.7811 47.5523 37.3333 47 37.3333H17.12C16.8123 37.3333 16.5255 37.1022 16.465 36.7891Z" fill="white"/>
</svg>
