<svg viewBox="0 0 105 110" fill="none" xmlns="http://www.w3.org/2000/svg">
<path d="M21.25 30.4729V74.8372C20.6131 74.7845 19.9741 74.7561 19.3341 74.7522L19.3233 74.7521H19.3125C14.107 74.7521 9.97405 76.3105 7.18887 79.3752C4.46052 82.3774 3.5 86.3074 3.5 90.1243C3.5 93.9412 4.46046 97.8722 7.18792 100.876C9.97259 103.943 14.1056 105.504 19.3125 105.504C24.476 105.504 29.2936 103.984 32.9058 101.354C36.5145 98.7274 39.125 94.8014 39.125 90.1278V41.4028L83.25 29.3884V62.9579C82.6129 62.9052 81.9736 62.8768 81.3334 62.873L81.3229 62.8729H81.3125C76.1028 62.8729 72.0371 64.4394 69.3621 67.5868C66.7794 70.6256 66 74.5555 66 78.2521C66 81.9488 66.7794 85.8776 69.3631 88.915C72.0386 92.0605 76.1043 93.6243 81.3125 93.6243C86.4757 93.6243 91.2933 92.1054 94.9057 89.476C98.5147 86.8491 101.125 82.9229 101.125 78.2486V12.9323V12.9293C101.124 11.4974 100.814 10.0752 100.21 8.77471C99.6051 7.47361 98.7145 6.31651 97.5873 5.41477C96.4584 4.51165 95.1259 3.89269 93.6927 3.63457C92.2946 3.38276 90.8639 3.48605 89.5183 3.92998L27.6053 21.4437L27.513 21.4698L27.4223 21.5009C25.5581 22.1404 23.9881 23.3917 22.901 25.0079C21.8161 26.6208 21.2511 28.5343 21.25 30.471V30.4729Z" fill="#EAEAEA" stroke="#1E1E1E" stroke-width="7"/>
</svg>
