<svg width="81" height="57" viewBox="0 0 81 57" fill="none" xmlns="http://www.w3.org/2000/svg">
<path d="M79.1495 9.26524C78.2239 5.78816 75.4968 3.04973 72.0341 2.1204C65.7579 0.431702 40.5909 0.431702 40.5909 0.431702C40.5909 0.431702 15.424 0.431702 9.14764 2.1204C5.68502 3.04987 2.9579 5.78816 2.03231 9.26524C0.350586 15.5676 0.350586 28.717 0.350586 28.717C0.350586 28.717 0.350586 41.8664 2.03231 48.1688C2.9579 51.6459 5.68502 54.2702 9.14764 55.1996C15.424 56.8883 40.5909 56.8883 40.5909 56.8883C40.5909 56.8883 65.7578 56.8883 72.0341 55.1996C75.4968 54.2702 78.2239 51.6459 79.1495 48.1688C80.8312 41.8664 80.8312 28.717 80.8312 28.717C80.8312 28.717 80.8312 15.5676 79.1495 9.26524ZM32.3599 40.6557V16.7784L53.3945 28.7173L32.3599 40.6557Z" fill="#EAEAEA"/>
</svg>
