<svg width="57" height="57" viewBox="0 0 57 57" fill="none" xmlns="http://www.w3.org/2000/svg">
<path d="M54.3562 3.17453L42.9018 0.531202C41.6572 0.244842 40.3796 0.89466 39.873 2.06213L34.5863 14.3977C34.1238 15.477 34.4322 16.7436 35.3463 17.4815L42.0207 22.9444C38.0557 31.392 31.128 38.4189 22.5041 42.461L17.0413 35.7866C16.2923 34.8724 15.0367 34.564 13.9574 35.0266L1.62187 40.3133C0.443383 40.8309 -0.206435 42.1085 0.0799256 43.3531L2.72325 54.8075C2.9986 55.997 4.05593 56.8561 5.3005 56.8561C33.507 56.8561 56.4048 34.0023 56.4048 5.75177C56.4048 4.51822 55.5567 3.44988 54.3562 3.17453Z" fill="#EAEAEA"/>
</svg>
