<svg width="67" height="51" viewBox="0 0 67 51" fill="none" xmlns="http://www.w3.org/2000/svg">
<path d="M64.8145 17.0939C65.3178 16.6867 66.0662 17.0677 66.0662 17.7114V44.579C66.0662 48.0606 63.2919 50.8853 59.8725 50.8853H6.1937C2.77426 50.8853 0 48.0606 0 44.579V17.7246C0 17.0677 0.735502 16.6998 1.25164 17.1071C4.14204 19.3931 7.97439 22.2967 21.136 32.032C23.8587 34.0553 28.4523 38.3121 33.0331 38.2858C37.6397 38.3252 42.3236 33.9765 44.9431 32.032C58.1047 22.2967 61.9241 19.38 64.8145 17.0939ZM33.0331 34.0684C36.0267 34.121 40.3365 30.2321 42.5043 28.6292C59.6273 15.9772 60.9306 14.8736 64.8791 11.7204C65.6275 11.1292 66.0662 10.2095 66.0662 9.23732V6.74107C66.0662 3.25946 63.2919 0.434753 59.8725 0.434753H6.1937C2.77426 0.434753 0 3.25946 0 6.74107V9.23732C0 10.2095 0.438721 11.1161 1.18713 11.7204C5.13561 14.8605 6.43887 15.9772 23.5619 28.6292C25.7297 30.2321 30.0395 34.121 33.0331 34.0684Z" fill="#EAEAEA"/>
</svg>
