<svg width="58" height="57" viewBox="0 0 58 57" fill="none" xmlns="http://www.w3.org/2000/svg">
<path d="M28.9734 0.463928C13.4087 0.463928 0.777344 13.0953 0.777344 28.66C0.777344 44.2247 13.4087 56.856 28.9734 56.856C44.5381 56.856 57.1695 44.2247 57.1695 28.66C57.1695 13.0953 44.5381 0.463928 28.9734 0.463928ZM40.4224 41.9508C39.9449 41.9508 39.6492 41.803 39.2058 41.5415C32.1113 37.2666 23.8572 37.0847 15.7053 38.756C15.2619 38.8697 14.6821 39.0516 14.3524 39.0516C13.2496 39.0516 12.556 38.1762 12.556 37.2552C12.556 36.0842 13.2496 35.5271 14.1023 35.3452C23.4138 33.2873 32.9299 33.4692 41.0477 38.324C41.7412 38.7674 42.1505 39.1653 42.1505 40.1999C42.1505 41.2345 41.3433 41.9508 40.4224 41.9508ZM43.4807 34.4925C42.8895 34.4925 42.4916 34.231 42.0823 34.015C34.9764 29.8083 24.3802 28.1143 14.955 30.6724C14.4092 30.8202 14.1136 30.968 13.602 30.968C12.3855 30.968 11.3963 29.9788 11.3963 28.7623C11.3963 27.5458 11.9875 26.7386 13.1586 26.4088C16.3193 25.522 19.5482 24.8626 24.2778 24.8626C31.6566 24.8626 38.7852 26.6931 44.4016 30.0357C45.3226 30.5814 45.6864 31.2863 45.6864 32.2754C45.675 33.5033 44.72 34.4925 43.4807 34.4925ZM47.0052 25.829C46.414 25.829 46.0502 25.6812 45.5386 25.3856C37.4436 20.5536 22.9704 19.3939 13.602 22.0089C13.1927 22.1226 12.6811 22.3045 12.1354 22.3045C10.6346 22.3045 9.48629 21.1335 9.48629 19.6213C9.48629 18.0751 10.4413 17.1997 11.4646 16.904C15.4666 15.733 19.9461 15.1759 24.8236 15.1759C33.1232 15.1759 41.8208 16.904 48.1763 20.6105C49.0631 21.1221 49.6429 21.827 49.6429 23.1799C49.6429 24.7262 48.3923 25.829 47.0052 25.829Z" fill="#EAEAEA"/>
</svg>
